<svg xmlns="http://www.w3.org/2000/svg" width="16" height="16" fill="none"><g fill="#B0B0BC" clip-path="url(#a)"><path d="M15.614 4.354h-3.54V2.808a.386.386 0 0 0-.387-.387H.387A.387.387 0 0 0 0 2.808v7.644c0 .214.173.387.386.387h15.228a.386.386 0 0 0 .386-.387V4.74a.386.386 0 0 0-.386-.386ZM11.3 10.066H.774V3.179H11.3v6.887Zm3.927 0h-3.154v-4.94h1.005v2.08c0 .213.173.386.387.386h1.762v2.474Zm0-3.224h-1.376V5.128h1.376v1.716Z"/><path d="M14.54 8.157h-.62v.772h.62v-.772ZM1.183 11.349H.387v.773h.796v-.773ZM10.698 11.349H5.635v.773h5.063v-.773ZM15.613 11.349h-.379v.773h.38v-.773ZM4.328 11.349v.386a1.07 1.07 0 0 1-2.141 0v-.386h-.773v.386a1.844 1.844 0 0 0 3.687 0v-.386h-.773ZM14.184 11.349v.386a1.07 1.07 0 0 1-2.141 0v-.386h-.773v.386a1.844 1.844 0 0 0 3.687 0v-.386h-.773ZM6.71 5.258H4.39l.518-.51a.388.388 0 1 0-.549-.549l-1.453 1.46.263.264 1.16 1.151a.397.397 0 0 0 .58-.54L4.39 6.03h2.32a.386.386 0 0 0 0-.773ZM8.92 7.337l-.016-.015L7.73 6.17a.386.386 0 0 0-.54.549l.51.502h-2.32a.387.387 0 0 0 0 .773H7.7l-.518.503a.386.386 0 0 0 .54.548L9.192 7.6l-.271-.263Z"/></g><defs><clipPath id="a"><path fill="#fff" d="M0 0h16v16H0z"/></clipPath></defs></svg>