<svg xmlns="http://www.w3.org/2000/svg" width="20" height="20" fill="none"><g clip-path="url(#a)"><path fill="url(#b)" d="M17.281 9.665a.45.45 0 0 0-.613-.166l-6.27 3.583a.627.627 0 0 1-.654 0L3.474 9.5a.448.448 0 1 0-.474.762l6.27 3.582c.235.15.509.228.788.224.277.005.55-.066.788-.206l6.27-3.582a.45.45 0 0 0 .165-.614Z"/><path fill="url(#c)" d="M7.125 14.009a.45.45 0 0 0-.614-.166l-.385.224a.45.45 0 0 0 .448.78l.385-.224a.45.45 0 0 0 .166-.614Z"/><path fill="url(#d)" d="M5.63 14.869a.45.45 0 0 0-.614-.166v.01l-.555.322a.448.448 0 0 0 .224.832.438.438 0 0 0 .223-.062l.556-.323a.45.45 0 0 0 .165-.613Z"/><path fill="url(#e)" d="M3.963 15.836a.45.45 0 0 0-.613-.165l-.385.223a.45.45 0 0 0 .448.78l.385-.224a.45.45 0 0 0 .165-.614Z"/><path fill="url(#f)" d="m17.062 15.894-.385-.223a.45.45 0 1 0-.447.779l.385.224a.45.45 0 1 0 .447-.78Z"/><path fill="url(#g)" d="M15.558 15.035v-.01l-.556-.322a.45.45 0 1 0-.447.78l.555.322a.44.44 0 0 0 .224.063.448.448 0 0 0 .224-.833Z"/><path fill="url(#h)" d="m13.883 14.058-.385-.224a.45.45 0 0 0-.448.78l.385.223a.45.45 0 1 0 .448-.779Z"/><path fill="url(#i)" d="M17.653 6.168h-1.45a2.22 2.22 0 0 0-1.004-1.021c.005-.081.005-.162 0-.242a2.41 2.41 0 0 0-1.612-2.284 3.78 3.78 0 0 0-7.165-.08 3.43 3.43 0 0 0-2.857 3.367v.25h-1.21A2.347 2.347 0 0 0 0 8.497v9.154a2.347 2.347 0 0 0 2.347 2.347h15.306A2.347 2.347 0 0 0 20 17.65V8.496a2.347 2.347 0 0 0-2.347-2.328ZM6.315 3.476a2.5 2.5 0 0 1 .492-.085.448.448 0 0 0 .403-.331 2.884 2.884 0 0 1 5.598 0c.04.164.167.292.331.331a1.523 1.523 0 0 1 1.183 1.487 1.365 1.365 0 0 1-.063.394.448.448 0 0 0 .307.554l.006.001c.43.129.767.466.896.896.04.118.062.242.063.367a1.317 1.317 0 0 1-1.317 1.308H6.906a2.572 2.572 0 0 1-.484-.027l-.18-.054-.205-.116-.215-.099-.153-.09-.232-.116-.099-.08a2.514 2.514 0 0 1-.224-.215 2.48 2.48 0 0 1-.537-1.048 2.499 2.499 0 0 1 1.738-3.077Zm12.798 5.02v9.154c0 .801-.65 1.45-1.45 1.45H2.355a1.45 1.45 0 0 1-1.451-1.45V8.496a1.442 1.442 0 0 1 1.45-1.433h1.38c.058.124.124.243.197.358l.107.197c.058.1.12.195.188.287l.144.18a2.985 2.985 0 0 0 .618.581l.233.144.286.16.233.1.367.116.206.054c.207.045.416.072.627.08h7.3c1.215 0 2.202-.98 2.212-2.194v-.063h1.21a1.442 1.442 0 0 1 1.45 1.433Z"/></g><defs><linearGradient id="b" x1="10.06" x2="10.06" y1="9.425" y2="14.068" gradientUnits="userSpaceOnUse"><stop stop-color="#F0860D"/><stop offset="1" stop-color="#D5611E"/></linearGradient><linearGradient id="c" x1="6.542" x2="6.542" y1="13.784" y2="14.906" gradientUnits="userSpaceOnUse"><stop stop-color="#F0860D"/><stop offset="1" stop-color="#D5611E"/></linearGradient><linearGradient id="d" x1="4.965" x2="4.965" y1="14.643" y2="15.867" gradientUnits="userSpaceOnUse"><stop stop-color="#F0860D"/><stop offset="1" stop-color="#D5611E"/></linearGradient><linearGradient id="e" x1="3.381" x2="3.381" y1="15.611" y2="16.733" gradientUnits="userSpaceOnUse"><stop stop-color="#F0860D"/><stop offset="1" stop-color="#D5611E"/></linearGradient><linearGradient id="f" x1="16.646" x2="16.646" y1="15.611" y2="16.733" gradientUnits="userSpaceOnUse"><stop stop-color="#F0860D"/><stop offset="1" stop-color="#D5611E"/></linearGradient><linearGradient id="g" x1="15.053" x2="15.053" y1="14.643" y2="15.868" gradientUnits="userSpaceOnUse"><stop stop-color="#F0860D"/><stop offset="1" stop-color="#D5611E"/></linearGradient><linearGradient id="h" x1="13.466" x2="13.466" y1="13.775" y2="14.897" gradientUnits="userSpaceOnUse"><stop stop-color="#F0860D"/><stop offset="1" stop-color="#D5611E"/></linearGradient><linearGradient id="i" x1="10" x2="10" y1=".003" y2="19.997" gradientUnits="userSpaceOnUse"><stop stop-color="#F0860D"/><stop offset="1" stop-color="#D5611E"/></linearGradient><clipPath id="a"><path fill="#fff" d="M0 0h20v20H0z"/></clipPath></defs></svg>