<svg xmlns="http://www.w3.org/2000/svg" width="32" height="32" fill="none"><g clip-path="url(#a)"><path fill="url(#b)" d="m30.593 1.33.07.014a4.673 4.673 0 0 0-6.548 0l-3.26 3.26-1.4 1.399A7.276 7.276 0 0 0 12.196 0H7.268A7.276 7.276 0 0 0 .007 7.276v4.925a7.248 7.248 0 0 0 6.115 7.136l-.616.616-1.735 1.72-.35.35v.085l-.112.084a.699.699 0 0 0-.14.223L.652 29.411l-.602 1.651A.7.7 0 0 0 .707 32h.238l6.044-2.141 2.463-.882h.084a.547.547 0 0 0 .182-.111.784.784 0 0 0 .196-.28c.18-.115.348-.246.503-.392l1.665-1.707L27.375 11.18v-.07l3.218-3.218a4.561 4.561 0 0 0 1.4-3.246 4.632 4.632 0 0 0-1.4-3.316ZM2.134 29.985l-.266.154 1.483-4.198a3.05 3.05 0 0 1 1.777.882 3.12 3.12 0 0 1 .896 1.763l-3.89 1.399Zm6.688-2.267-1.469.462a4.561 4.561 0 0 0-1.231-2.28 4.42 4.42 0 0 0-2.295-1.232l.518-1.4a3.204 3.204 0 0 1 4.477 4.45Zm2.113-2.07-.168.14a4.645 4.645 0 0 0-1.4-3.26 4.631 4.631 0 0 0-3.147-1.274l1.819-1.819h9.094l-6.198 6.212Zm7.15-7.598H7.269A5.863 5.863 0 0 1 1.406 12.2V7.276A5.877 5.877 0 0 1 7.27 1.4h4.925a5.89 5.89 0 0 1 5.89 5.876V18.05Zm8.31-7.948L19.4 17.1V7.976l2.379-2.393a3.232 3.232 0 0 1 2.336-.923 3.19 3.19 0 0 1 2.28.951 3.218 3.218 0 0 1 0 4.491Zm3.275-3.204-.938.938a4.631 4.631 0 0 0-4.56-4.561l.923-.938a3.274 3.274 0 0 1 4.575 0c.612.612.955 1.443.951 2.309a3.176 3.176 0 0 1-.951 2.252Z"/><path fill="url(#c)" d="M13.454 12.453c.589-.772.913-1.714.923-2.686a4.575 4.575 0 0 0-.924-2.799l1.526-1.525-.994-.993-1.525 1.553a4.561 4.561 0 0 0-2.798-.923c-.984 0-1.942.319-2.729.91L5.506 4.477l-.993.98 1.51 1.524a4.617 4.617 0 0 0 0 5.457l-1.51 1.54.993.979 1.497-1.511c.787.59 1.745.91 2.729.91a4.561 4.561 0 0 0 2.798-.924l1.525 1.525.994-.994-1.595-1.51Zm-1.428-.461a3.19 3.19 0 0 1-2.28.951 3.19 3.19 0 0 1-2.281-.951 3.232 3.232 0 0 1 0-4.562 3.19 3.19 0 0 1 2.267-.951 3.274 3.274 0 0 1 3.246 3.274 3.135 3.135 0 0 1-.952 2.239Z"/></g><defs><linearGradient id="b" x1="16" x2="16" y1="0" y2="32" gradientUnits="userSpaceOnUse"><stop stop-color="#F0860D"/><stop offset="1" stop-color="#D5611E"/></linearGradient><linearGradient id="c" x1="9.781" x2="9.781" y1="4.45" y2="14.958" gradientUnits="userSpaceOnUse"><stop stop-color="#F0860D"/><stop offset="1" stop-color="#D5611E"/></linearGradient><clipPath id="a"><path fill="#fff" d="M0 0h32v32H0z"/></clipPath></defs></svg>