<svg xmlns="http://www.w3.org/2000/svg" width="16" height="16" fill="none"><g fill="#B0B0BC" clip-path="url(#a)"><path d="M14.298 14.12c-.018-.004-.025-.004-.035-.004H5.16a1.501 1.501 0 0 0-1.077-1.063V1.607a1.723 1.723 0 0 0-3.438 0 .376.376 0 0 0 .75 0 .973.973 0 0 1 1.94 0v11.446a1.498 1.498 0 1 0 1.829 1.814h9.101a.33.33 0 0 1 .337.322v.014a.376.376 0 0 0 .75 0 1.07 1.07 0 0 0-1.055-1.084ZM3.723 15.252a.748.748 0 0 1 0-1.495.748.748 0 0 1 0 1.495Z"/><path d="M12.93 6.983h-2.649V1.832a.373.373 0 0 0-.375-.372H5.414a.376.376 0 0 0-.375.375v11.042c0 .207.168.376.375.376h7.516a.376.376 0 0 0 .376-.376V7.358a.376.376 0 0 0-.376-.375ZM5.772 2.207h3.744v4.769H5.772V2.207Zm6.776 10.291H5.772V7.73h6.776v4.768Z"/><path d="M11.34 10.677h-1.024a.376.376 0 0 0 0 .751h1.024a.376.376 0 0 0 0-.75ZM7.077 2.776h-.323a.376.376 0 0 0 0 .75h.323a.376.376 0 0 0 0-.75ZM3.723 14.821a.316.316 0 1 0 0-.632.316.316 0 0 0 0 .632Z"/></g><defs><clipPath id="a"><path fill="#fff" d="M0 0h16v16H0z"/></clipPath></defs></svg>