<svg xmlns="http://www.w3.org/2000/svg" width="32" height="32" fill="none"><path fill="url(#a)" d="M30.241 7.102a9.486 9.486 0 0 1-13.375 0c-4.662-4.621-12.179-4.621-16.842 0l1.759 1.759a9.461 9.461 0 0 1 13.325 0L16 7.994l-.867.867c4.666 4.637 12.2 4.637 16.867 0L30.24 7.102Z"/><path fill="url(#b)" d="M30.217 19.815a9.461 9.461 0 0 1-13.375 0C12.185 15.18 4.657 15.18 0 19.815l1.759 1.759a9.461 9.461 0 0 1 13.35 0c4.665 4.637 12.2 4.637 16.866 0l-1.758-1.759Z"/><defs><linearGradient id="a" x1="16.012" x2="16.012" y1="3.636" y2="12.339" gradientUnits="userSpaceOnUse"><stop stop-color="#F0860D"/><stop offset="1" stop-color="#D5611E"/></linearGradient><linearGradient id="b" x1="15.988" x2="15.988" y1="16.339" y2="25.052" gradientUnits="userSpaceOnUse"><stop stop-color="#F0860D"/><stop offset="1" stop-color="#D5611E"/></linearGradient></defs></svg>