<svg xmlns="http://www.w3.org/2000/svg" width="32" height="32" fill="none"><g clip-path="url(#a)"><path fill="url(#b)" d="M20.087 13.286H18.96a2.253 2.253 0 0 1-1.571-.626 2.17 2.17 0 0 1-.626-1.39 2.615 2.615 0 0 0-.766-5.106l1.113-3.992a.696.696 0 0 0-.667-.877h-7.47a.696.696 0 0 0-.668.89l1.14 3.979a2.615 2.615 0 0 0-.806 5.12 2.184 2.184 0 0 1-2.156 2.044h-1.1A5.411 5.411 0 0 0 0 18.767v5.203c0 4.437 5.564 7.901 12.7 7.901h.098c3.106.052 6.17-.726 8.875-2.253a6.955 6.955 0 0 0 3.84-5.746V18.67a5.411 5.411 0 0 0-5.426-5.384Zm-4.59-10.6-.974 3.478h-3.659l-.987-3.45 5.62-.028Zm8.638 21.242a5.564 5.564 0 0 1-3.2 4.493 16.04 16.04 0 0 1-8.15 2.045h-.07c-6.232 0-11.296-2.907-11.31-6.51v-.612a9.223 9.223 0 0 0 11.81-1.03l-.987-.987a7.832 7.832 0 0 1-10.823.236v-2.782a4.006 4.006 0 0 1 3.978-4.034H6.511a3.575 3.575 0 0 0 3.533-3.603v-.125a.682.682 0 0 0 0-.292.696.696 0 0 0-.696-.696c-.327.03-.648-.1-.862-.348a1.224 1.224 0 0 1 .862-2.1h6.594a1.224 1.224 0 1 1 0 2.448.696.696 0 0 0-.696.696.679.679 0 0 0 0 .278v.125c0 1.974 1.6 3.575 3.575 3.575h1.141a4.02 4.02 0 0 1 4.006 4.006v1.614A9.153 9.153 0 0 0 18.78 18.6a9.14 9.14 0 0 0-6.497 2.782l.988.974a7.804 7.804 0 0 1 10.864-.223v1.795Z"/><path fill="url(#c)" d="M31.995 10.254a4.701 4.701 0 0 0-1.711-3.089 4.674 4.674 0 0 0 1.683-3.102.695.695 0 0 0-.417-.723 4.702 4.702 0 0 0-3.52 0A4.716 4.716 0 0 0 26.18.266a.696.696 0 0 0-.835 0 4.702 4.702 0 0 0-1.836 3.032 4.688 4.688 0 0 0-3.52.098.695.695 0 0 0-.416.723 4.688 4.688 0 0 0 1.71 3.074 4.757 4.757 0 0 0-1.683 3.102.696.696 0 0 0 .418.724c1.119.48 2.382.505 3.519.07a4.689 4.689 0 0 0 1.85 3.004.696.696 0 0 0 .835 0 4.675 4.675 0 0 0 1.822-3.019 4.674 4.674 0 0 0 3.534-.097.696.696 0 0 0 .417-.723Zm-4.048-.793-.167-.126a.696.696 0 0 0-1.085.64v.334a3.297 3.297 0 0 1-.96 2.31 3.297 3.297 0 0 1-.932-2.296V9.99a.696.696 0 0 0-1.085-.626l-.25.195a3.311 3.311 0 0 1-2.449.362 3.367 3.367 0 0 1 1.53-1.962l.25-.125a.695.695 0 0 0 .39-.64.71.71 0 0 0-.417-.64l-.25-.125a3.311 3.311 0 0 1-1.545-1.947 3.367 3.367 0 0 1 2.56.417l.153.111c.228.15.523.15.751 0a.737.737 0 0 0 .348-.695v-.265c.004-.859.343-1.682.946-2.295a3.31 3.31 0 0 1 .932 2.295v.32a.696.696 0 0 0 1.099.626l.25-.125a3.297 3.297 0 0 1 2.449-.361 3.297 3.297 0 0 1-1.53 1.961l-.265.125a.695.695 0 0 0 0 1.266l.25.125a3.31 3.31 0 0 1 1.545 1.948 3.353 3.353 0 0 1-2.518-.473Z"/></g><defs><linearGradient id="b" x1="12.756" x2="12.756" y1="1.295" y2="31.873" gradientUnits="userSpaceOnUse"><stop stop-color="#F0860D"/><stop offset="1" stop-color="#D5611E"/></linearGradient><linearGradient id="c" x1="25.784" x2="25.784" y1=".127" y2="14.232" gradientUnits="userSpaceOnUse"><stop stop-color="#F0860D"/><stop offset="1" stop-color="#D5611E"/></linearGradient><clipPath id="a"><path fill="#fff" d="M0 0h32v32H0z"/></clipPath></defs></svg>