<svg xmlns="http://www.w3.org/2000/svg" width="20" height="20" fill="none"><g clip-path="url(#a)"><path fill="url(#b)" d="M9.991 0a6.368 6.368 0 0 0-6.368 6.349c-.005.83.162 1.652.49 2.415.076.205.168.404.274.594l5.189 10.378a.472.472 0 0 0 .849 0L15.557 9.48c.115-.215.219-.435.311-.66a.452.452 0 0 0 .066-.151 6.275 6.275 0 0 0 .444-2.321A6.377 6.377 0 0 0 9.99-.001Zm5.028 8.406c-.085.213-.183.42-.292.622l-4.717 9.434-4.717-9.434-.076-.141a4.169 4.169 0 0 1-.245-.529 5.17 5.17 0 0 1-.405-2.01 5.434 5.434 0 1 1 10.867 0 5.35 5.35 0 0 1-.415 2.058Z"/><path fill="url(#c)" d="M12.5 7.453a1.16 1.16 0 0 0-.764-.312c-.11.005-.218.028-.32.067l-.36-.368a.836.836 0 0 0 0-.142V6.16a.787.787 0 0 0 0-.132l.36-.358c.102.039.21.06.32.066a1.066 1.066 0 0 0 .755-1.83 1.104 1.104 0 0 0-.774-.321c-.282.001-.55.117-.745.32a1.075 1.075 0 0 0-.246 1.085l-.358.359a.77.77 0 0 0-.142 0h-.518a.775.775 0 0 0-.133 0l-.358-.368c.124-.376.03-.79-.245-1.075a1.038 1.038 0 0 0-.755-.321A1.066 1.066 0 0 0 7.16 4.67c.005.278.12.543.321.736a1.028 1.028 0 0 0 1.104.254l.349.359a.794.794 0 0 0 0 .132v.519a.83.83 0 0 0 0 .141l-.359.359a1.037 1.037 0 0 0-.34-.066.943.943 0 0 0-.745.311 1.066 1.066 0 0 0-.33.82c0 .267.114.52.312.699.2.2.47.316.754.32.28.002.55-.11.746-.31a1.01 1.01 0 0 0 .31-.708 1.067 1.067 0 0 0-.065-.359l.358-.358a.764.764 0 0 0 .142 0h.519a.764.764 0 0 0 .141 0l.359.358a1.065 1.065 0 0 0-.066.368.943.943 0 0 0 .302.698c.194.204.463.32.745.321.274.004.539-.101.736-.292a1 1 0 0 0 .368-.736 1.066 1.066 0 0 0-.321-.783Z"/></g><defs><linearGradient id="b" x1="10.001" x2="10.001" y1="0" y2="20" gradientUnits="userSpaceOnUse"><stop stop-color="#F0860D"/><stop offset="1" stop-color="#D5611E"/></linearGradient><linearGradient id="c" x1="9.99" x2="9.99" y1="3.585" y2="9.264" gradientUnits="userSpaceOnUse"><stop stop-color="#F0860D"/><stop offset="1" stop-color="#D5611E"/></linearGradient><clipPath id="a"><path fill="#fff" d="M0 0h20v20H0z"/></clipPath></defs></svg>