<svg xmlns="http://www.w3.org/2000/svg" width="32" height="32" fill="none"><g clip-path="url(#a)"><path fill="url(#b)" d="M28.913 4.591 26.338 2.03a6.863 6.863 0 0 0-9.745 0 6.96 6.96 0 0 0-.557 9.063L.903 26.253a2.673 2.673 0 0 0 0 3.773 2.784 2.784 0 0 0 3.773 0l.292-.292 1.392 1.392a2.673 2.673 0 0 0 4.302-3.035 2.784 2.784 0 0 0 3.035-.53 2.673 2.673 0 0 0 0-3.772l-1.392-1.392 7.546-7.545a6.863 6.863 0 0 0 9.063-10.26Zm-.988 8.73a5.569 5.569 0 0 1-7.643.083.696.696 0 0 0-.974 0l-8.493 8.492a.696.696 0 0 0 0 .988l1.936 1.935c.499.5.499 1.31 0 1.81a1.309 1.309 0 0 1-1.81 0l-1.908-1.921a.696.696 0 0 0-.984-.004l-.004.004-.766.766a.696.696 0 0 0 0 .988l1.935 1.935c.5.5.5 1.31 0 1.81a1.309 1.309 0 0 1-1.81 0l-1.934-1.95a.696.696 0 0 0-.985-.003l-.004.004-.78.78a1.309 1.309 0 0 1-1.81 0c-.498-.5-.498-1.31 0-1.81v.014l15.62-15.634a.696.696 0 0 0 0-.975 5.569 5.569 0 0 1 .084-7.629 5.569 5.569 0 0 1 7.74 0l2.59 2.576a5.485 5.485 0 0 1 0 7.74Z"/><path fill="url(#c)" d="M26.115 7.39 23.54 4.884a2.98 2.98 0 0 0-4.177 0 2.91 2.91 0 0 0 0 4.176l2.631 2.45c.55.54 1.29.84 2.06.836a2.896 2.896 0 0 0 2.061-4.956Zm-.977 3.134a1.53 1.53 0 0 1-1.084.43 1.53 1.53 0 0 1-1.071-.418L20.407 7.96a1.531 1.531 0 0 1 0-2.158 1.517 1.517 0 0 1 2.158 0l2.561 2.576c.596.59.602 1.55.012 2.146Z"/><path fill="url(#d)" d="M31.674 25.715a.153.153 0 0 1-.004-.005l-6.891-6.905a.682.682 0 0 0-.668-.125l-4.024 1.072h-2.116v-.431a.696.696 0 0 0-1.392 0v1.127c0 .385.312.696.696.696h2.075l-.836 3.09a.697.697 0 0 0 .181.67l6.891 6.89c.271.273.712.275.985.004l.004-.004L31.67 26.7a.696.696 0 0 0 .004-.985Zm-5.6 4.645-6.112-6.125.877-3.244 3.244-.863 6.112 6.111-4.121 4.121Z"/><path fill="url(#e)" d="M22.593 23.831a1.072 1.072 0 1 0 0-2.144 1.072 1.072 0 0 0 0 2.144Z"/></g><defs><linearGradient id="b" x1="15.496" x2="15.496" y1="0" y2="31.902" gradientUnits="userSpaceOnUse"><stop stop-color="#F0860D"/><stop offset="1" stop-color="#D5611E"/></linearGradient><linearGradient id="c" x1="22.728" x2="22.728" y1="4.029" y2="12.346" gradientUnits="userSpaceOnUse"><stop stop-color="#F0860D"/><stop offset="1" stop-color="#D5611E"/></linearGradient><linearGradient id="d" x1="24.228" x2="24.228" y1="18.624" y2="32" gradientUnits="userSpaceOnUse"><stop stop-color="#F0860D"/><stop offset="1" stop-color="#D5611E"/></linearGradient><linearGradient id="e" x1="22.593" x2="22.593" y1="21.687" y2="23.831" gradientUnits="userSpaceOnUse"><stop stop-color="#F0860D"/><stop offset="1" stop-color="#D5611E"/></linearGradient><clipPath id="a"><path fill="#fff" d="M0 0h32v32H0z"/></clipPath></defs></svg>