<svg xmlns="http://www.w3.org/2000/svg" width="32" height="32" fill="none"><g clip-path="url(#a)"><path fill="url(#b)" d="M27.817 4.128v.032a.532.532 0 0 0-.373-.16 17.654 17.654 0 0 0-12.522 5.228 17.675 17.675 0 0 0-5.238 12.543c0 .294.238.532.532.532a17.654 17.654 0 0 0 12.564-5.238A17.665 17.665 0 0 0 27.976 4.5a.532.532 0 0 0-.16-.372ZM17.18 8.653a16.515 16.515 0 0 1 8.933-3.503l-8.933 8.923v-5.42Zm-3.44 3.61a17.03 17.03 0 0 1 1.896-2.29c.149-.149.298-.276.447-.415v5.569L13.74 17.49v-5.228Zm-1.064 1.757v4.535l-1.853 1.853c.179-2.233.809-4.406 1.853-6.389Zm9.359 2.31a16.557 16.557 0 0 1-10.456 4.834l1.938-1.97.096-.096 3.024-3.023h5.632l-.234.255Zm1.16-1.269a.531.531 0 0 0-.18.002H17.69l2.353-2.353h4.749c-.465.828-1 1.615-1.598 2.351Zm2.14-3.448h-4.258l5.717-5.718a16.63 16.63 0 0 1-1.458 5.718Z"/><path fill="url(#c)" d="m9.055 22.197-1.022 1.012.746.756L9.8 22.963l-.746-.767Z"/><path fill="url(#d)" d="M9.422 25.257a.532.532 0 0 0-.058-.057L6.83 22.644a.532.532 0 0 0-.746.756l.352.34H5.339a.532.532 0 0 0-.522.405L4.04 27.34a.532.532 0 0 0 .522.66h.128l3.194-.777a.532.532 0 0 0 .362-.575v-1.065l.373.373a.532.532 0 1 0 .803-.699Zm-2.24.997-1.917.468.468-1.916h1.448v1.448Z"/></g><defs><linearGradient id="b" x1="18.83" x2="18.83" y1="4" y2="22.303" gradientUnits="userSpaceOnUse"><stop stop-color="#F0860D"/><stop offset="1" stop-color="#D5611E"/></linearGradient><linearGradient id="c" x1="8.917" x2="8.917" y1="22.197" y2="23.965" gradientUnits="userSpaceOnUse"><stop stop-color="#F0860D"/><stop offset="1" stop-color="#D5611E"/></linearGradient><linearGradient id="d" x1="6.789" x2="6.789" y1="22.518" y2="28" gradientUnits="userSpaceOnUse"><stop stop-color="#F0860D"/><stop offset="1" stop-color="#D5611E"/></linearGradient><clipPath id="a"><path fill="#fff" d="M4 4h24v24H4z"/></clipPath></defs></svg>