<svg xmlns="http://www.w3.org/2000/svg" width="32" height="32" fill="none"><g clip-path="url(#a)"><path fill="url(#b)" d="M23.283 10.681a10.23 10.23 0 0 0-7.281-3.016A10.23 10.23 0 0 0 8.72 10.68a10.23 10.23 0 0 0-3.016 7.282 10.23 10.23 0 0 0 3.016 7.281 10.23 10.23 0 0 0 7.282 3.016 10.23 10.23 0 0 0 7.281-3.016 10.23 10.23 0 0 0 3.016-7.282 10.23 10.23 0 0 0-3.016-7.281Zm-1.322 13.24a8.373 8.373 0 0 1-5.96 2.47 8.373 8.373 0 0 1-5.959-2.47 8.373 8.373 0 0 1-2.468-5.958c0-2.252.877-4.368 2.469-5.96a8.373 8.373 0 0 1 5.959-2.468c2.25 0 4.367.877 5.96 2.468a8.373 8.373 0 0 1 2.467 5.96 8.373 8.373 0 0 1-2.468 5.959Z"/><path fill="url(#c)" d="m29.823 8.675.589-.726a4.78 4.78 0 0 0 1.05-3.529 4.779 4.779 0 0 0-1.753-3.238A4.78 4.78 0 0 0 26.18.132a4.779 4.779 0 0 0-3.237 1.753l-.59.726 3.017 2.45-1.256 1.442a13.906 13.906 0 0 0-7.178-2.547V1.87h2.123V0h-6.101v1.87h2.109v2.086a13.905 13.905 0 0 0-7.18 2.548L6.63 5.06l3.017-2.45-.59-.725A4.78 4.78 0 0 0 5.82.132a4.78 4.78 0 0 0-3.528 1.05A4.779 4.779 0 0 0 .538 4.42a4.78 4.78 0 0 0 1.05 3.53l.59.725 3-2.435 1.26 1.448a13.945 13.945 0 0 0-4.474 10.275c0 3.442 1.232 6.695 3.486 9.257l-3.107 3.37 1.374 1.267 3.058-3.315A13.934 13.934 0 0 0 16.002 32c3.43 0 6.671-1.223 9.229-3.46l3.059 3.317 1.375-1.267-3.11-3.372a13.933 13.933 0 0 0 3.484-9.256 13.946 13.946 0 0 0-4.476-10.276l1.26-1.446 3 2.435ZM2.568 5.95a2.928 2.928 0 0 1-.17-1.336 2.921 2.921 0 0 1 1.071-1.98 2.918 2.918 0 0 1 2.157-.642c.46.048.894.2 1.273.44L2.568 5.95Zm25.601 12.012c0 3.25-1.266 6.306-3.564 8.604a12.088 12.088 0 0 1-8.604 3.564c-3.25 0-6.305-1.266-8.603-3.564a12.088 12.088 0 0 1-3.564-8.604c0-3.25 1.266-6.305 3.564-8.603a12.088 12.088 0 0 1 8.604-3.564c3.25 0 6.305 1.266 8.603 3.564a12.089 12.089 0 0 1 3.564 8.603ZM25.101 2.433c.38-.241.812-.393 1.273-.44a2.922 2.922 0 0 1 2.157.641c.61.495.99 1.198 1.071 1.98.048.46-.012.915-.17 1.336l-4.331-3.517Z"/><path fill="url(#d)" d="M15.215 11.59v5.47h-4.087v1.87h6.023v-7.34h-1.936Z"/></g><defs><linearGradient id="b" x1="16.002" x2="16.002" y1="7.665" y2="28.26" gradientUnits="userSpaceOnUse"><stop stop-color="#F0860D"/><stop offset="1" stop-color="#D5611E"/></linearGradient><linearGradient id="c" x1="16" x2="16" y1="0" y2="32" gradientUnits="userSpaceOnUse"><stop stop-color="#F0860D"/><stop offset="1" stop-color="#D5611E"/></linearGradient><linearGradient id="d" x1="14.139" x2="14.139" y1="11.59" y2="18.93" gradientUnits="userSpaceOnUse"><stop stop-color="#F0860D"/><stop offset="1" stop-color="#D5611E"/></linearGradient><clipPath id="a"><path fill="#fff" d="M0 0h32v32H0z"/></clipPath></defs></svg>