<svg xmlns="http://www.w3.org/2000/svg" width="32" height="32" fill="none"><g clip-path="url(#a)"><path fill="url(#b)" d="M19.332 2.458a1.049 1.049 0 0 0-.87-.73l-1.076-.139-.414-.938a1.104 1.104 0 0 0-1.918 0l-.428.938-1.048.152a1.076 1.076 0 0 0-.594 1.821l.718.732-.18 1.035a1.063 1.063 0 0 0 1.546 1.131l.938-.483.911.47a1.049 1.049 0 0 0 1.145-.069c.333-.239.5-.647.428-1.05l-.18-1.048.746-.731c.292-.281.4-.704.276-1.09Zm-2.498 1.353.193 1.131-1.02-.524-1.022.538.193-1.132-.828-.8 1.146-.18.51-1.034.51 1.035 1.132.165-.814.8Z"/><path fill="url(#c)" d="M13.937 7.536a1.076 1.076 0 0 0-.87-.731l-1.048-.152-.47-.938a1.104 1.104 0 0 0-1.917 0l-.47.952-1.048.152a1.076 1.076 0 0 0-.58 1.821l.773.704-.18 1.049a1.076 1.076 0 0 0 1.05 1.269 1.09 1.09 0 0 0 .496-.124l.924-.497.925.483c.361.187.796.16 1.131-.069.343-.237.516-.652.442-1.063l-.18-1.034.76-.732c.284-.285.385-.706.262-1.09Zm-2.498 1.325.193 1.131-1.02-.538-1.022.538.193-1.131-.828-.8 1.146-.166.51-1.035.51 1.035 1.146.166-.828.8Z"/><path fill="url(#d)" d="M15.592 14.394a1.076 1.076 0 0 0-.869-.731l-1.049-.152-.427-.938a1.104 1.104 0 0 0-1.918 0l-.47.938-1.048.152c-.393.058-.722.329-.856.704-.142.391-.04.83.262 1.117l.76.732-.208 1.076a1.063 1.063 0 0 0 1.049 1.256c.178-.001.353-.044.51-.125l.925-.496.91.483a1.09 1.09 0 0 0 1.146 0c.333-.238.499-.646.428-1.049l-.11-1.131.758-.732c.274-.298.354-.726.207-1.104Zm-2.511 1.38.193 1.132-1.021-.539-1.021.538.193-1.131-.828-.8 1.132-.166.51-1.035.51 1.035 1.146.166-.814.8Z"/><path fill="url(#e)" d="M23.099 14.408a1.09 1.09 0 0 0-.856-.717l-1.049-.152-.455-.939a1.104 1.104 0 0 0-1.932 0l-.469.939-1.049.152a1.076 1.076 0 0 0-.579 1.82l.759.732-.18 1.035a1.062 1.062 0 0 0 1.05 1.256c.15-.016.295-.063.427-.138l.924-.497.911.483c.349.208.783.208 1.132 0 .337-.235.51-.643.441-1.049l-.18-1.048.76-.745c.33-.275.466-.72.345-1.132Zm-2.512 1.38.194 1.131-1.022-.538-.993.497.193-1.132-.828-.8 1.132-.165.51-1.035.51 1.035 1.146.165-.842.842Z"/><path fill="url(#f)" d="M24.727 7.536a1.077 1.077 0 0 0-.87-.731l-1.048-.152-.47-.938a1.104 1.104 0 0 0-1.917 0l-.47.952-1.048.152c-.374.057-.69.31-.828.662-.139.392-.036.829.262 1.118l.76.731-.18 1.063a1.076 1.076 0 0 0 1.049 1.255 1.09 1.09 0 0 0 .496-.124l.925-.497.91.483c.349.208.784.208 1.132 0 .37-.242.55-.686.455-1.117l-.18-1.035.76-.732c.287-.284.389-.706.262-1.09Zm-2.553 1.325.193 1.131-1.02-.538-1.022.538.193-1.131-.828-.8 1.146-.166.51-1.035.51 1.035 1.146.166-.828.8Z"/><path fill="url(#g)" d="m31.944 22.866.013-.151a2.166 2.166 0 0 0-1.255-1.504 2.76 2.76 0 0 0-2.553.317 32.628 32.628 0 0 1-4.015 1.821 2.318 2.318 0 0 0-.345-1.38 2.415 2.415 0 0 0-2.415-.993 25.926 25.926 0 0 1-8.928-.731 12.651 12.651 0 0 0-6.513.234 1.173 1.173 0 0 0-1.172-1.131H.69a.69.69 0 0 0-.69.69v11.038c0 .381.309.69.69.69h4.057a1.16 1.16 0 0 0 1.145-1.048l3.463.372c4.043.456 7.369.8 9.163.8.307.022.616.022.924 0 1.78-.262 5.52-2.593 9.107-4.953.731-.483 1.38-.856 1.614-1.035 1.463-.842 2.029-1.808 1.78-3.036ZM4.54 30.276H1.38v-9.659h3.16v9.66Zm24.934-5.726c-.318.193-.925.58-1.684 1.076-2.249 1.463-6.9 4.512-8.555 4.747a77.892 77.892 0 0 1-9.728-.76c-1.38-.15-2.76-.303-3.588-.372v-7.41a11.81 11.81 0 0 1 6.14-.4 27.512 27.512 0 0 0 9.453.773c.409-.1.838.046 1.104.373.14.306.14.659 0 .965a.624.624 0 0 0 0 .138l-.083.18c-.166.166-.828.662-3.188.842-3.753.29-4.305.441-4.553 1.269a.662.662 0 0 0 .455.828h.207a.731.731 0 0 0 .607-.359 21.859 21.859 0 0 1 3.395-.4 7.604 7.604 0 0 0 3.794-1.007 45.268 45.268 0 0 0 5.589-2.443 1.38 1.38 0 0 1 1.283-.234.8.8 0 0 1 .455.524c.083.428.18.925-1.104 1.67Z"/></g><defs><linearGradient id="b" x1="16.027" x2="16.027" y1=".094" y2="6.584" gradientUnits="userSpaceOnUse"><stop stop-color="#F0860D"/><stop offset="1" stop-color="#D5611E"/></linearGradient><linearGradient id="c" x1="10.604" x2="10.604" y1="5.157" y2="11.662" gradientUnits="userSpaceOnUse"><stop stop-color="#F0860D"/><stop offset="1" stop-color="#D5611E"/></linearGradient><linearGradient id="d" x1="12.278" x2="12.278" y1="12.015" y2="18.572" gradientUnits="userSpaceOnUse"><stop stop-color="#F0860D"/><stop offset="1" stop-color="#D5611E"/></linearGradient><linearGradient id="e" x1="19.769" x2="19.769" y1="12.031" y2="18.538" gradientUnits="userSpaceOnUse"><stop stop-color="#F0860D"/><stop offset="1" stop-color="#D5611E"/></linearGradient><linearGradient id="f" x1="21.398" x2="21.398" y1="5.157" y2="11.666" gradientUnits="userSpaceOnUse"><stop stop-color="#F0860D"/><stop offset="1" stop-color="#D5611E"/></linearGradient><linearGradient id="g" x1="16" x2="16" y1="19.348" y2="31.907" gradientUnits="userSpaceOnUse"><stop stop-color="#F0860D"/><stop offset="1" stop-color="#D5611E"/></linearGradient><clipPath id="a"><path fill="#fff" d="M0 0h32v32H0z"/></clipPath></defs></svg>