<svg xmlns="http://www.w3.org/2000/svg" width="32" height="32" fill="none"><g clip-path="url(#a)"><path fill="url(#b)" d="m31.146 18.265-7.3-8.861a.678.678 0 0 0-.542-.249H8.692a.71.71 0 0 0-.543.249L.856 18.278a.693.693 0 0 0 .085.974l14.612 12.645c.21.137.477.137.686 0L31.061 19.24a.699.699 0 0 0 .085-.974Zm-12.913-7.724 2.313 7.489h-9.09l2.313-7.49h4.464Zm-9.208-.013h3.274L9.986 18.03H2.862l6.163-7.502Zm-5.77 8.894h6.79l4.097 9.423-10.887-9.423Zm12.743 10.207-4.431-10.207h8.868l-4.437 10.207Zm1.856-.777 4.084-9.424h6.79l-10.874 9.424Zm4.182-10.822-2.34-7.502h3.274l6.163 7.489-7.097.013Z"/><path fill="url(#c)" d="M15.998 0a.7.7 0 0 0-.7.7v2.228a.7.7 0 0 0 1.4 0V.699a.7.7 0 0 0-.7-.699Z"/><path fill="url(#d)" d="M9.547 4.463 8.43 2.543a.693.693 0 0 0-1.196.7l1.118 1.92a.692.692 0 0 0 .6.346.646.646 0 0 0 .347-.098.693.693 0 0 0 .248-.948Z"/><path fill="url(#e)" d="M24.506 2.3a.701.701 0 0 0-.954.255v-.013l-1.104 1.921a.701.701 0 0 0 .255.955c.333.189.764.078.954-.255l1.104-1.909a.701.701 0 0 0-.255-.954Z"/><path fill="url(#f)" d="M15.998 6.287a.725.725 0 1 0 0-1.451.725.725 0 0 0 0 1.45Z"/></g><defs><linearGradient id="b" x1="16" x2="16" y1="9.155" y2="32" gradientUnits="userSpaceOnUse"><stop stop-color="#F0860D"/><stop offset="1" stop-color="#D5611E"/></linearGradient><linearGradient id="c" x1="15.998" x2="15.998" y1="0" y2="3.627" gradientUnits="userSpaceOnUse"><stop stop-color="#F0860D"/><stop offset="1" stop-color="#D5611E"/></linearGradient><linearGradient id="d" x1="8.391" x2="8.391" y1="2.198" y2="5.509" gradientUnits="userSpaceOnUse"><stop stop-color="#F0860D"/><stop offset="1" stop-color="#D5611E"/></linearGradient><linearGradient id="e" x1="23.604" x2="23.604" y1="2.208" y2="5.51" gradientUnits="userSpaceOnUse"><stop stop-color="#F0860D"/><stop offset="1" stop-color="#D5611E"/></linearGradient><linearGradient id="f" x1="15.998" x2="15.998" y1="4.836" y2="6.287" gradientUnits="userSpaceOnUse"><stop stop-color="#F0860D"/><stop offset="1" stop-color="#D5611E"/></linearGradient><clipPath id="a"><path fill="#fff" d="M0 0h32v32H0z"/></clipPath></defs></svg>