<svg xmlns="http://www.w3.org/2000/svg" width="20" height="20" fill="none"><g clip-path="url(#a)"><path fill="url(#b)" d="m18.32 12.883-3.008-.594a2.101 2.101 0 0 0-2.39 1.688 25.065 25.065 0 0 1-3.841-3.084 28.908 28.908 0 0 1-3.053-3.774 2.075 2.075 0 0 0 1.666-2.413c0-.009-.005-.018-.005-.023l-.617-2.94A1.974 1.974 0 0 0 6.257.397 2.109 2.109 0 0 0 4.654.059L1.696.654a2.105 2.105 0 0 0-1.364.914c-.302.445-.405 1-.28 1.526C.049 3.09.445 5.012.58 5.656c.86 3.485 2.968 6.286 5.264 8.46 2.729 2.67 5.57 4.553 7.772 5.17.801.225 3.255.644 3.255.644a2.04 2.04 0 0 0 1.621-.324c.446-.302.752-.775.847-1.306l.626-3.008a2.06 2.06 0 0 0-1.644-2.409Zm.698 2.256-.626 2.999c-.045.279-.207.526-.441.68a1.061 1.061 0 0 1-.847.153s-2.377-.406-3.16-.586c-2.099-.49-4.805-2.39-7.39-4.94C4.358 11.358 2.192 7.733 1.58 5.48l-.59-2.593a1.017 1.017 0 0 1 .144-.788v-.01c.171-.256.437-.431.739-.49l2.958-.594h.22c.23 0 .455.067.645.202.238.167.391.424.432.712l.617 2.95c.099.593-.284 1.16-.874 1.287l-.747.144a.48.48 0 0 0-.307.747 32.867 32.867 0 0 0 3.62 4.508 27.34 27.34 0 0 0 4.544 3.629.48.48 0 0 0 .738-.324l.104-.72c.13-.59.698-.978 1.297-.883l3.017.594c.594.117.99.689.882 1.288Z"/></g><defs><linearGradient id="b" x1="10" x2="10" y1=".021" y2="19.979" gradientUnits="userSpaceOnUse"><stop stop-color="#F0860D"/><stop offset="1" stop-color="#D5611E"/></linearGradient><clipPath id="a"><path fill="#fff" d="M0 0h20v20H0z"/></clipPath></defs></svg>