<svg xmlns="http://www.w3.org/2000/svg" width="103" height="78" fill="none"><path fill="#F28705" d="M82.559 9.08c.605 2.537-.945 6.153-6.447 9.432-.912.545-1.921.935-2.485 1.07-.45.107-.837.11-1.061.044-.322-.102-.49-.18-.517-.294-.047-.197.257-.418.78-.722 4.087-2.345 8.773-6.8 8.073-9.73-.12-.507-.41-.974-.863-1.372-1.058-.94-2.667-.943-4.499-.505-4.255 1.015-9.513 4.444-11.176 4.84-.14.034-.26.033-.351.025-.533-.111-.756-.296-.803-.494-.114-.479.757-1.074.954-1.12.041.049-.242.236-.221.32.006.028.041.05.097.036.874-.208 6.31-3.263 10.988-4.379 2.085-.498 3.998-.596 5.319.071a4.252 4.252 0 0 1 2.212 2.778Zm-9.603 1.071c.356 1.494-.506 3.873-1.635 6.883-1.714 4.549-2.657 7.961-2.421 8.947.047.198.18.255.299.256.239.003.407.082.434.195.02.084-.044.19-.185.223a.679.679 0 0 1-.324.017c-1.017-.144-1.538-.705-1.747-1.578-.47-1.973.846-5.444 2.257-8.64 1.384-3.19 2.835-6.098 2.633-6.943-.027-.113-.04-.169-.11-.212a.329.329 0 0 1-.139-.205c-.02-.085-.012-.176.045-.19.028-.006.097.037.174.108.341.306.604.66.719 1.139Zm17.889 6.096a.353.353 0 0 1-.053.28c-1.256 2.475-4.169 6.118-6.592 6.697-.987.235-1.862-.062-2.49-1.193a2.257 2.257 0 0 1-.231-.6c-.734-3.072 3.358-9.141 4.739-9.47.986-.236 2.174 1 2.423 2.042.04.169.046.317.051.464-.078 1.419-1.874 3.128-3.492 3.961-.184.104-.267.004-.287-.08-.027-.113.017-.302.187-.462.91-.932 1.977-2.2 2.292-2.751.316-.552.412-1.022.345-1.303-.06-.254-.242-.39-.524-.322-.197.047-.459.199-.75.477-1.753 1.64-3.612 4.585-3.468 7.559.04.794.482.897.933.79 1.747-.417 5.373-4.32 6.487-6.016.093-.112.17-.16.255-.18.085-.02.155.023.175.107Zm11.432-2.013c.027.113-.01.33-.197.672-1.269 2.418-2.511 4.204-3.723 4.493-.253.06-.492.058-.716-.008-.61-.182-.908-.558-1.036-1.093-.276-1.156.37-2.948.848-4.313.507-1.491.685-2.367.591-2.762-.054-.225-.193-.311-.39-.264-1.466.35-6.291 7.339-6.613 9.858-.023.154-.16.455-.327.376-.364-.152-.586-.456-.687-.879-.612-2.564 2.842-9.435 2.593-10.477a.16.16 0 0 0-.118-.121c-.091-.008-.133-.058-.153-.142-.027-.113-.004-.267.087-.26.785.17 1.203.548 1.337 1.111.236.987-.308 2.576-1.147 4.801-.13.33-.14.54-.126.596.013.057.013.057.042.05.056-.013.177-.132.327-.376 2.195-3.532 3.716-5.146 4.9-5.428.62-.148 1.025.053 1.596.572.153.142.228.333.282.558.228.958-.12 1.994-.778 4.355-.38 1.402-.464 2.047-.363 2.47.047.197.13.297.299.256.423-.1 1.312-1.117 2.807-3.589.186-.342.385-.508.526-.542.056-.014.119.001.139.086Z"/><mask id="a" width="78" height="79" x="0" y="-1" maskUnits="userSpaceOnUse" style="mask-type:luminance"><path fill="#fff" d="m0 58.285 58.286 18.826L77.11 18.826 18.826 0 0 58.285Z"/></mask><g mask="url(#a)"><path fill="#F28705" d="M27.915 63.836c-2.773-1.762-3.958-4.992-4.362-8.34-.404-3.35-.103-6.965-.658-10.61-.278-1.823-.928-3.642-1.763-5.274-.983-1.555-2.375-2.995-3.984-3.762 1.352 1.18 2.372 2.623 2.982 4.182 1.984 4.973.579 10.09 1.228 15.745.277 1.823.78 3.718 1.69 5.497.947 1.667 2.302 3.22 4.1 4.171a8.385 8.385 0 0 0 5.52.917 7.982 7.982 0 0 0 3.415-1.373s.112.036.076.148c.452.518 1.197.51 1.602.022l10.668-10.418c7.973-7.822 10.038-10.002 10.628-10.678a.753.753 0 0 0 .217-.672c-.309-5.175-.767-10.274-1.187-15.485l.896.29c.448.144.933.177 1.306.174 1.153-.123 2.115-.803 2.626-2l.18-.56c.037-.112 1.778-5.12 1.742-5.007l.145-.449.18-.56c.146-.449.178-.933.099-1.454-.159-1.041-.762-1.855-1.699-2.405-.224-.073-.412-.257-.636-.33l-1.458-.47-8.034-2.719-8.106-2.494-1.009-.326c-1.793-.58-3.609.443-4.3 2.2l-.181.56-.326 1.01c-.072.224-1.264 4.295-1.191 4.071l-.326 1.009c-.322 1.381.436 2.864 1.597 3.486l.672.218.449.145.224.072c-3.354 3.868-6.743 7.848-10.021 11.864a.75.75 0 0 0-.217.673c.115.409.674 4.426 2.41 14.766l2.746 14.874s-.036.112.076.149c-2.785.957-5.804.724-8.016-.857ZM41.15 21.322l-.449-.145-.336-.108c-.412-.258-.752-.738-.72-1.223-.039-.26.034-.485.106-.709l.29-.896c.253-.785 1.451-4.112 1.415-4l.326-1.008c.072-.224.181-.56.365-.749.294-.524.999-.791 1.523-.498l1.009.326 8.034 2.718 8.107 2.495 1.457.47.336.11c.3.22.564.553.68.961.075.149.003.373.043.633l-.145.448-.145.449c-.253.784-1.514 5.453-1.517 5.08l-.145.448c-.29.897-1.179 1.352-2.112 1.175l-1.009-.326c-2.502-.684-5.152-1.293-7.691-1.865l-.673-.217c-2.617-1.093-5.159-2.038-7.777-3.131l-.972-.438Zm-5.735 28.103-2.815-14.278c3.165-4.052 6.219-8.141 9.309-12.342 2.614.72 5.376 1.365 8.027 1.974l.56.18c2.17.949 4.487 1.821 6.693 2.657.049 5.215.133 10.317.33 15.456l-10.635 9.933-8.12 7.899c1.096-2.246 2.04-4.787 2.764-7.029.58-1.793 1.047-3.623 1.514-5.453.467-1.83.71-3.731.84-5.67a3.92 3.92 0 0 0 3.245.305c1.113-.382 2.148-1.286 2.547-2.52a4.438 4.438 0 0 0-.148-3.76c-.607-1.186-1.659-2.145-2.892-2.543-1.232-.399-2.759-.273-3.833.37a4.437 4.437 0 0 0-2.319 2.965c-.286 1.27-.088 2.571.592 3.533.68.962 1.692 1.66 2.809 1.65-1.873-1.1-2.302-3.219-1.72-4.64.62-1.533 2.326-2.22 3.747-1.637 1.345.435 2.328 1.99 2.082 3.52-.247 1.53-1.947 2.96-4.11 2.757-1.027 1.65-1.83 3.37-2.634 5.091-1.494 3.478-2.617 6.953-3.511 10.873-.181.56-.286 1.269-.355 1.865l-1.967-11.156Z"/></g><path fill="#F28705" d="M11.687 17.478c.168.705.139 1.456-.449 2.49-1.47 2.704-7.382 11.501-6.743 14.178.108.451.316.7.955.755.182.016.414-.01.64-.063 1.465-.35 3.778-1.765 5.553-2.189.874-.209 1.626-.18 2.098.303.16.17.25.298.277.411.047.197-.074.316-.187.342-.084.02-.175.013-.224-.065-.041-.05-.167-.08-.308-.046-.451.108-1.342.618-2.395 1.197-1.06.551-2.31 1.177-3.494 1.46-1.578.376-3.059.163-3.857-1.433a2.92 2.92 0 0 1-.252-.684C2.198 29.511 9.31 18.76 9.785 17.246c.102-.322.14-.54.112-.652-.033-.141-.174-.108-.315-.074-.197.047-.43.192-.572.226-.028.006-.056.013-.063-.015-.02-.084.08-.287.41-.782a.59.59 0 0 1 .381-.27c.62-.149 1.66.587 1.949 1.798Zm14.64 9.224c.034.141-.054.52-.277.96-1.155 2.272-2.177 3.856-3.22 4.105-.253.06-.619.028-.954-.13-.37-.18-.57-.52-.699-1.055-.275-1.155.009-2.712.172-3.525.023-.155.03-.246.01-.33-.006-.029-.013-.057-.041-.05-.057.013-.106.055-.164.188-1.216 2.643-3.038 5.49-4.141 6.111-.134.062-.29.159-.459.199-.676.161-1.79-.139-1.854-1.404-.192-3.052 2.632-7.568 2.383-8.61-.034-.142-.067-.283.046-.31.112-.026.97-.052 1.185.85.074.31.06.998-.115 1.516-.747 2.234-1.87 4.765-1.83 6.185.012.176.011.295.038.408.047.197.152.262.265.235.169-.04.417-.249.673-.548 1.63-1.908 4.471-6.726 4.941-8 .218-.588.43-.817.628-.865a.483.483 0 0 1 .337.04c.483.152.713.365.78.647.087.366-.123.982-.253 1.311-.838 2.106-1.442 4.693-1.18 5.792.081.338.214.396.383.355.536-.127 1.576-1.508 2.766-3.638.186-.342.357-.502.47-.53.056-.013.09.009.11.093Zm8.056-8.951c.04.169-.183.103-.397.333-.747.863-3.38 4.56-4.598 6.816-.122.238-.3.489-.261.777.078.577.129 1.041.23 1.464.302 1.268.762 1.695 1.325 1.56.958-.228 2.257-2.027 3.755-4.112.064-.105.142-.153.198-.167a.229.229 0 0 1 .28.172c.013.056-.002.12-.038.217-1.64 2.864-3.467 4.819-4.876 5.155-1.014.242-1.837-.336-2.234-1.999-.085.02-.17.04-.247.09-.82 1.178-3.063 5.138-3.764 6.318-.064.105-.114.147-.142.153-.085.02-.161-.05-.188-.163-.027-.113-.011-.296.09-.498.775-1.496 2.83-5.114 3.89-6.915.057-.133.079-.168.033-.485-.177-1.238-.367-2.534-.602-3.52-.229-.958-.446-1.62-.813-1.533-.028.006-.085.14-.226.173-.057.013-.092-.008-.105-.064-.014-.057-.027-.113.002-.24.038-.217.258-.418.85-.56a4.4 4.4 0 0 1 .802-.131c.64-.064.937.431 1.119 1.192.14.592.203 1.352.328 2.126.026.232.074.31.13.296.057-.013.143-.153.278-.334 2.08-3.266 3.73-6.34 4.631-6.556a.35.35 0 0 1 .392.145c.097.156.145.234.158.29Z"/></svg>